<svg xmlns="http://www.w3.org/2000/svg" viewBox="0 0 512 512" width="512" height="512">
  <defs>
    <linearGradient id="grad" x1="0%" y1="0%" x2="100%" y2="100%">
      <stop offset="0%" stop-color="#3b82f6" />
      <stop offset="100%" stop-color="#1d4ed8" />
    </linearGradient>
    <linearGradient id="glow" x1="0%" y1="0%" x2="100%" y2="100%">
      <stop offset="0%" stop-color="#60a5fa" />
      <stop offset="100%" stop-color="#2563eb" />
    </linearGradient>
  </defs>
  <rect width="512" height="512" rx="128" fill="url(#grad)" />
  <circle cx="256" cy="256" r="160" fill="none" stroke="#ffffff" stroke-width="20" stroke-opacity="0.2" />
  <circle cx="256" cy="256" r="120" fill="none" stroke="#ffffff" stroke-width="12" stroke-opacity="0.3" stroke-dasharray="16 12" />
  <!-- Globe / Network Nodes -->
  <path d="M176 256C176 200 212 156 256 156C300 156 336 200 336 256C336 312 300 356 256 356C212 356 176 312 176 256Z" fill="none" stroke="#ffffff" stroke-width="20" />
  <line x1="136" y1="256" x2="376" y2="256" stroke="#ffffff" stroke-width="20" stroke-linecap="round" />
  <line x1="156" y1="200" x2="356" y2="200" stroke="#ffffff" stroke-width="16" stroke-linecap="round" stroke-opacity="0.8" />
  <line x1="156" y1="312" x2="356" y2="312" stroke="#ffffff" stroke-width="16" stroke-linecap="round" stroke-opacity="0.8" />
  <!-- Checkmark / Handshake symbol -->
  <circle cx="370" cy="150" r="44" fill="#10b981" stroke="#ffffff" stroke-width="10" />
  <path d="M354 150L366 162L388 138" fill="none" stroke="#ffffff" stroke-width="8" stroke-linecap="round" stroke-linejoin="round" />
</svg>
